<svg width="29" height="29" viewBox="0 0 29 29" fill="none" xmlns="http://www.w3.org/2000/svg">
<path d="M14.5 29C22.5081 29 29 22.5081 29 14.5C29 6.49187 22.5081 0 14.5 0C6.49187 0 0 6.49187 0 14.5C0 22.5081 6.49187 29 14.5 29Z" fill="white"/>
<path d="M19.0962 16.4038C18.3882 15.6958 17.5456 15.1718 16.6262 14.8545C17.6109 14.1763 18.2578 13.0413 18.2578 11.7578C18.2578 9.68576 16.5721 8 14.5 8C12.4279 8 10.7422 9.68576 10.7422 11.7578C10.7422 13.0413 11.3891 14.1763 12.3738 14.8545C11.4544 15.1718 10.6118 15.6958 9.90381 16.4038C8.67613 17.6315 8 19.2638 8 21H9.01562C9.01562 17.9759 11.4759 15.5156 14.5 15.5156C17.5241 15.5156 19.9844 17.9759 19.9844 21H21C21 19.2638 20.3239 17.6315 19.0962 16.4038Z" fill="#0C0E0E"/>
</svg>
